<svg id="visual" viewBox="0 0 300 210" width="300" height="210" xmlns="http://www.w3.org/2000/svg" xmlns:xlink="http://www.w3.org/1999/xlink" version="1.1"><g transform="translate(160.57180825031406 86.04048574567447)"><path id="blob1" d="M43.4 -46.9C55.9 -30.9 65.5 -15.5 72.9 7.5C80.4 30.4 85.8 60.8 73.3 82.7C60.8 104.6 30.4 117.9 0.6 117.3C-29.2 116.7 -58.5 102.2 -77.8 80.3C-97.1 58.5 -106.6 29.2 -99.6 7C-92.7 -15.3 -69.3 -30.6 -50 -46.6C-30.6 -62.6 -15.3 -79.3 0.1 -79.4C15.5 -79.5 30.9 -62.9 43.4 -46.9" fill="#db9f14"></path></g>

<g transform="translate(158.46013883836116 92.92058651921455)"><path id="blob2" d="M48.4 -42.4C65.9 -30.9 85.5 -15.5 88.1 2.6C90.7 20.7 76.5 41.5 59 59C41.5 76.5 20.7 90.7 2.6 88.1C-15.6 85.6 -31.1 66.1 -53 48.6C-74.9 31.1 -103.1 15.6 -105.2 -2.1C-107.3 -19.8 -83.3 -39.6 -61.5 -51.1C-39.6 -62.6 -19.8 -65.8 -2.2 -63.6C15.5 -61.5 30.9 -53.9 48.4 -42.4" fill="#db9f14"></path></g>
</svg>