<svg id="visual" viewBox="0 0 250 165" width="250" height="165" xmlns="http://www.w3.org/2000/svg" xmlns:xlink="http://www.w3.org/1999/xlink" version="1.1"><g transform="translate(113.47331335218978 84.2311553603507)"><path d="M50.8 -45.8C67.6 -33.9 84.3 -17 84.3 0C84.3 17 67.6 33.9 50.8 46.6C33.9 59.3 17 67.6 0.8 66.8C-15.3 66 -30.6 56 -39.2 43.3C-47.8 30.6 -49.7 15.3 -54.2 -4.5C-58.7 -24.3 -65.8 -48.6 -57.2 -60.4C-48.6 -72.3 -24.3 -71.6 -3.7 -68C17 -64.3 33.9 -57.6 50.8 -45.8" fill="#db9f14"></path></g>

<g transform="translate(122.072186355393 87.56431459083801)"><path d="M55.3 -59.3C64 -46.7 58 -23.3 58.5 0.5C59 24.3 65.9 48.6 57.3 57.2C48.6 65.8 24.3 58.7 4.3 54.4C-15.8 50.2 -31.6 48.8 -41.9 40.2C-52.3 31.6 -57.1 15.8 -55.4 1.8C-53.6 -12.3 -45.2 -24.5 -34.8 -37.2C-24.5 -49.8 -12.3 -62.9 5.5 -68.5C23.3 -74 46.7 -72 55.3 -59.3" fill="#db9f14"></path></g>
</svg>