<svg id="visual" viewBox="0 0 300 210" width="300" height="210" xmlns="http://www.w3.org/2000/svg" xmlns:xlink="http://www.w3.org/1999/xlink" version="1.1"><rect width="300" height="210" fill="#3b3b3b"></rect><g><g transform="translate(215 178)"><path d="M18.4 -6.8C20.9 1.7 17.9 11.1 11.4 15.9C4.8 20.7 -5.3 21 -11.9 16.2C-18.5 11.4 -21.6 1.7 -19 -6.9C-16.5 -15.4 -8.2 -22.8 -0.1 -22.8C8 -22.7 16 -15.3 18.4 -6.8Z" fill="#db9f14"></path></g><g transform="translate(88 166)"><path d="M11.1 -4.1C12.4 0.7 10.4 6.1 6.5 8.9C2.6 11.7 -3.1 11.9 -7 9.1C-10.9 6.4 -13.1 0.7 -11.6 -4.1C-10.2 -9 -5.1 -13.1 -0.1 -13C4.8 -13 9.7 -8.8 11.1 -4.1Z" fill="#db9f14"></path></g><g transform="translate(174 88)"><path d="M16.1 -4.8C18.7 2.6 17 11.8 11.4 16C5.8 20.2 -3.8 19.2 -9.7 14.6C-15.6 10 -18 1.7 -15.8 -5.3C-13.5 -12.2 -6.8 -17.9 0 -17.9C6.8 -17.9 13.6 -12.2 16.1 -4.8Z" fill="#db9f14"></path></g><g transform="translate(280 179)"><path d="M15 -4.6C17 1.5 14.7 9.2 9.7 12.7C4.7 16.1 -2.9 15.3 -7.8 11.6C-12.8 7.8 -15 1.1 -13.2 -4.5C-11.4 -10.1 -5.7 -14.6 0.4 -14.7C6.5 -14.8 12.9 -10.6 15 -4.6Z" fill="#db9f14"></path></g><g transform="translate(151 170)"><path d="M17.7 -4.9C20.3 2.1 17.8 11.6 11.8 16C5.7 20.3 -3.9 19.4 -10.6 14.5C-17.4 9.7 -21.3 0.7 -19 -5.9C-16.8 -12.5 -8.4 -16.9 -0.4 -16.8C7.6 -16.6 15.1 -12 17.7 -4.9Z" fill="#db9f14"></path></g><g transform="translate(298 72)"><path d="M19.3 -6.8C21.8 1.1 18.1 10.5 11.2 15.6C4.4 20.6 -5.8 21.2 -12.4 16.6C-18.9 11.9 -22 1.9 -19.3 -6.4C-16.7 -14.7 -8.3 -21.3 0.1 -21.4C8.5 -21.4 16.9 -14.8 19.3 -6.8Z" fill="#db9f14"></path></g><g transform="translate(7 63)"><path d="M9.5 -3.4C10.8 0.9 9.3 5.8 5.8 8.5C2.2 11.2 -3.3 11.7 -6.7 9.3C-10.1 6.8 -11.4 1.3 -9.9 -3.2C-8.4 -7.7 -4.2 -11.2 0 -11.2C4.1 -11.2 8.2 -7.6 9.5 -3.4Z" fill="#db9f14"></path></g><g transform="translate(216 3)"><path d="M14.1 -4.9C16 1.1 13.6 8.2 8.4 12.1C3.3 16 -4.6 16.6 -9.7 12.9C-14.9 9.3 -17.2 1.5 -15.2 -4.9C-13.1 -11.2 -6.5 -16.1 -0.2 -16C6.1 -16 12.3 -11 14.1 -4.9Z" fill="#db9f14"></path></g><g transform="translate(78 30)"><path d="M16.5 -5.4C18.8 1.8 16.3 10.5 10.5 14.8C4.6 19.2 -4.7 19.3 -11.4 14.7C-18.1 10 -22.2 0.8 -19.9 -6.5C-17.5 -13.7 -8.8 -18.9 -0.8 -18.7C7.1 -18.4 14.2 -12.6 16.5 -5.4Z" fill="#db9f14"></path></g><g transform="translate(34 201)"><path d="M13.4 -4.2C15.1 1 12.8 7.7 8.1 11.1C3.5 14.5 -3.5 14.5 -8 11.2C-12.4 7.9 -14.2 1.4 -12.5 -3.9C-10.7 -9.2 -5.3 -13.1 0.2 -13.2C5.8 -13.2 11.6 -9.5 13.4 -4.2Z" fill="#db9f14"></path></g><g transform="translate(239 116)"><path d="M16.4 -5.2C18.6 1.5 16 9.9 9.7 14.8C3.5 19.6 -6.4 21 -12.5 16.6C-18.6 12.3 -21 2.3 -18.3 -5C-15.6 -12.3 -7.8 -17 -0.4 -16.9C7.1 -16.8 14.2 -11.9 16.4 -5.2Z" fill="#db9f14"></path></g><g transform="translate(94 101)"><path d="M17.4 -5.6C19.5 1.1 16.3 9.5 10.1 14.1C3.8 18.7 -5.4 19.4 -10.7 15.4C-16 11.4 -17.4 2.6 -15 -4.4C-12.6 -11.4 -6.3 -16.7 0.7 -16.9C7.6 -17.2 15.2 -12.3 17.4 -5.6Z" fill="#db9f14"></path></g><g transform="translate(5 2)"><path d="M17.7 -5.9C19.8 0.7 16.2 8.9 9.9 13.5C3.6 18 -5.3 18.8 -10.7 14.8C-16.2 10.9 -18.1 2.2 -15.7 -4.7C-13.4 -11.6 -6.7 -16.8 0.6 -17C7.8 -17.1 15.6 -12.4 17.7 -5.9Z" fill="#db9f14"></path></g><g transform="translate(292 4)"><path d="M12.8 -4C14.5 1.2 12.5 7.9 8.4 10.7C4.2 13.5 -2.1 12.5 -6.1 9.4C-10.1 6.2 -11.9 0.9 -10.5 -3.9C-9.1 -8.6 -4.5 -12.8 0.5 -13C5.5 -13.1 11 -9.3 12.8 -4Z" fill="#db9f14"></path></g><g transform="translate(145 4)"><path d="M10.2 -3.8C11.4 0.5 9.4 5.4 5.8 8C2.1 10.7 -3.2 11.2 -6.5 8.8C-9.8 6.4 -11.2 1.2 -9.8 -3.4C-8.4 -8 -4.2 -11.8 0.1 -11.9C4.5 -11.9 9 -8.2 10.2 -3.8Z" fill="#db9f14"></path></g><g transform="translate(36 120)"><path d="M12.9 -4.1C14.8 1.4 12.8 8.2 8.5 11.2C4.2 14.3 -2.6 13.5 -7.4 10.1C-12.2 6.6 -15 0.4 -13.5 -4.7C-11.9 -9.8 -6 -13.8 -0.2 -13.7C5.6 -13.6 11.1 -9.5 12.9 -4.1Z" fill="#db9f14"></path></g></g></svg>