<svg id="visual" viewBox="0 0 300 210" width="300" height="210" xmlns="http://www.w3.org/2000/svg" xmlns:xlink="http://www.w3.org/1999/xlink" version="1.1"><g stroke-width="1" stroke-linejoin="bevel"><path d="M136 96L128 90L133 108Z" fill="#9a7530" stroke="#9a7530"></path><path d="M152 90L123 82L128 90Z" fill="#ca941f" stroke="#ca941f"></path><path d="M128 90L105 120L133 108Z" fill="#5b4e39" stroke="#5b4e39"></path><path d="M133 108L152 90L136 96Z" fill="#8a6b33" stroke="#8a6b33"></path><path d="M136 96L152 90L128 90Z" fill="#ca941f" stroke="#ca941f"></path><path d="M123 82L105 120L128 90Z" fill="#ca941f" stroke="#ca941f"></path><path d="M148 52L111 67L123 82Z" fill="#8a6b33" stroke="#8a6b33"></path><path d="M123 82L85 72L105 120Z" fill="#4b443a" stroke="#4b443a"></path><path d="M105 120L121 143L133 108Z" fill="#7a6136" stroke="#7a6136"></path><path d="M133 108L194 129L152 90Z" fill="#7a6136" stroke="#7a6136"></path><path d="M111 67L85 72L123 82Z" fill="#3b3b3b" stroke="#3b3b3b"></path><path d="M85 72L76 110L105 120Z" fill="#4b443a" stroke="#4b443a"></path><path d="M83 166L121 155L121 143Z" fill="#ba8a26" stroke="#ba8a26"></path><path d="M152 90L148 52L123 82Z" fill="#9a7530" stroke="#9a7530"></path><path d="M111 67L105 37L85 72Z" fill="#7a6136" stroke="#7a6136"></path><path d="M81 164L121 143L105 120Z" fill="#aa7f2c" stroke="#aa7f2c"></path><path d="M161 169L194 129L133 108Z" fill="#5b4e39" stroke="#5b4e39"></path><path d="M121 155L124 158L121 143Z" fill="#7a6136" stroke="#7a6136"></path><path d="M110 33L105 37L111 67Z" fill="#9a7530" stroke="#9a7530"></path><path d="M57 101L59 110L76 110Z" fill="#7a6136" stroke="#7a6136"></path><path d="M76 110L81 164L105 120Z" fill="#5b4e39" stroke="#5b4e39"></path><path d="M121 155L83 166L124 158Z" fill="#7a6136" stroke="#7a6136"></path><path d="M57 101L76 110L85 72Z" fill="#aa7f2c" stroke="#aa7f2c"></path><path d="M148 52L110 33L111 67Z" fill="#ca941f" stroke="#ca941f"></path><path d="M152 90L166 43L148 52Z" fill="#8a6b33" stroke="#8a6b33"></path><path d="M148 52L127 0L110 33Z" fill="#aa7f2c" stroke="#aa7f2c"></path><path d="M31 85L57 101L40 53Z" fill="#ba8a26" stroke="#ba8a26"></path><path d="M161 169L133 108L121 143Z" fill="#db9f14" stroke="#db9f14"></path><path d="M152 90L211 55L166 43Z" fill="#ba8a26" stroke="#ba8a26"></path><path d="M194 129L198 126L152 90Z" fill="#ca941f" stroke="#ca941f"></path><path d="M124 158L161 169L121 143Z" fill="#6b5738" stroke="#6b5738"></path><path d="M194 129L218 133L198 126Z" fill="#8a6b33" stroke="#8a6b33"></path><path d="M54 141L81 164L76 110Z" fill="#9a7530" stroke="#9a7530"></path><path d="M147 187L159 181L161 169Z" fill="#db9f14" stroke="#db9f14"></path><path d="M81 164L83 166L121 143Z" fill="#9a7530" stroke="#9a7530"></path><path d="M0 116L54 141L59 110Z" fill="#ca941f" stroke="#ca941f"></path><path d="M59 110L54 141L76 110Z" fill="#ca941f" stroke="#ca941f"></path><path d="M81 164L50 174L83 166Z" fill="#6b5738" stroke="#6b5738"></path><path d="M147 187L161 169L124 158Z" fill="#ba8a26" stroke="#ba8a26"></path><path d="M201 198L218 133L194 129Z" fill="#ca941f" stroke="#ca941f"></path><path d="M136 210L147 187L124 158Z" fill="#3b3b3b" stroke="#3b3b3b"></path><path d="M54 141L53 158L81 164Z" fill="#4b443a" stroke="#4b443a"></path><path d="M83 166L136 210L124 158Z" fill="#8a6b33" stroke="#8a6b33"></path><path d="M198 126L211 55L152 90Z" fill="#7a6136" stroke="#7a6136"></path><path d="M40 53L85 72L105 37Z" fill="#5b4e39" stroke="#5b4e39"></path><path d="M40 53L57 101L85 72Z" fill="#3b3b3b" stroke="#3b3b3b"></path><path d="M57 101L31 85L59 110Z" fill="#7a6136" stroke="#7a6136"></path><path d="M0 155L23 181L53 158Z" fill="#8a6b33" stroke="#8a6b33"></path><path d="M201 198L194 129L161 169Z" fill="#aa7f2c" stroke="#aa7f2c"></path><path d="M198 126L230 104L211 55Z" fill="#8a6b33" stroke="#8a6b33"></path><path d="M66 1L40 53L105 37Z" fill="#7a6136" stroke="#7a6136"></path><path d="M146 -1L127 0L148 52Z" fill="#5b4e39" stroke="#5b4e39"></path><path d="M110 33L77 0L105 37Z" fill="#ba8a26" stroke="#ba8a26"></path><path d="M146 -1L148 52L166 43Z" fill="#4b443a" stroke="#4b443a"></path><path d="M261 179L222 132L218 133Z" fill="#5b4e39" stroke="#5b4e39"></path><path d="M218 133L230 104L198 126Z" fill="#ca941f" stroke="#ca941f"></path><path d="M127 0L113 0L110 33Z" fill="#7a6136" stroke="#7a6136"></path><path d="M155 0L146 -1L166 43Z" fill="#3b3b3b" stroke="#3b3b3b"></path><path d="M127 0L144 -9L113 0Z" fill="#8a6b33" stroke="#8a6b33"></path><path d="M222 132L230 104L218 133Z" fill="#8a6b33" stroke="#8a6b33"></path><path d="M166 0L155 0L166 43Z" fill="#8a6b33" stroke="#8a6b33"></path><path d="M23 181L50 174L53 158Z" fill="#5b4e39" stroke="#5b4e39"></path><path d="M53 158L50 174L81 164Z" fill="#6b5738" stroke="#6b5738"></path><path d="M222 132L234 105L230 104Z" fill="#6b5738" stroke="#6b5738"></path><path d="M230 104L260 52L211 55Z" fill="#db9f14" stroke="#db9f14"></path><path d="M193 0L166 0L166 43Z" fill="#4b443a" stroke="#4b443a"></path><path d="M155 0L144 -9L146 -1Z" fill="#8a6b33" stroke="#8a6b33"></path><path d="M55 210L136 210L83 166Z" fill="#4b443a" stroke="#4b443a"></path><path d="M147 187L163 209L159 181Z" fill="#9a7530" stroke="#9a7530"></path><path d="M159 181L201 198L161 169Z" fill="#8a6b33" stroke="#8a6b33"></path><path d="M166 0L144 -9L155 0Z" fill="#5b4e39" stroke="#5b4e39"></path><path d="M146 -1L144 -9L127 0Z" fill="#6b5738" stroke="#6b5738"></path><path d="M144 -9L77 0L113 0Z" fill="#8a6b33" stroke="#8a6b33"></path><path d="M113 0L77 0L110 33Z" fill="#9a7530" stroke="#9a7530"></path><path d="M211 55L219 37L166 43Z" fill="#8a6b33" stroke="#8a6b33"></path><path d="M260 52L219 37L211 55Z" fill="#8a6b33" stroke="#8a6b33"></path><path d="M160 210L163 209L147 187Z" fill="#8a6b33" stroke="#8a6b33"></path><path d="M136 210L160 210L147 187Z" fill="#ca941f" stroke="#ca941f"></path><path d="M41 0L66 1L77 0Z" fill="#8a6b33" stroke="#8a6b33"></path><path d="M77 0L66 1L105 37Z" fill="#8a6b33" stroke="#8a6b33"></path><path d="M40 53L11 84L31 85Z" fill="#ca941f" stroke="#ca941f"></path><path d="M31 85L0 116L59 110Z" fill="#ca941f" stroke="#ca941f"></path><path d="M0 79L11 84L40 53Z" fill="#4b443a" stroke="#4b443a"></path><path d="M219 37L193 0L166 43Z" fill="#8a6b33" stroke="#8a6b33"></path><path d="M166 0L198 -15L144 -9Z" fill="#3b3b3b" stroke="#3b3b3b"></path><path d="M196 220L201 198L163 209Z" fill="#5b4e39" stroke="#5b4e39"></path><path d="M163 209L201 198L159 181Z" fill="#ca941f" stroke="#ca941f"></path><path d="M222 132L292 117L234 105Z" fill="#db9f14" stroke="#db9f14"></path><path d="M11 84L0 116L31 85Z" fill="#3b3b3b" stroke="#3b3b3b"></path><path d="M0 0L0 79L40 53Z" fill="#4b443a" stroke="#4b443a"></path><path d="M11 84L0 79L0 116Z" fill="#ba8a26" stroke="#ba8a26"></path><path d="M44 210L55 210L50 174Z" fill="#aa7f2c" stroke="#aa7f2c"></path><path d="M50 174L55 210L83 166Z" fill="#ba8a26" stroke="#ba8a26"></path><path d="M0 144L53 158L54 141Z" fill="#8a6b33" stroke="#8a6b33"></path><path d="M0 -5L41 0L77 0Z" fill="#6b5738" stroke="#6b5738"></path><path d="M66 1L41 0L40 53Z" fill="#ba8a26" stroke="#ba8a26"></path><path d="M0 116L0 144L54 141Z" fill="#5b4e39" stroke="#5b4e39"></path><path d="M226 0L198 -15L193 0Z" fill="#4b443a" stroke="#4b443a"></path><path d="M193 0L198 -15L166 0Z" fill="#3b3b3b" stroke="#3b3b3b"></path><path d="M0 -5L0 0L41 0Z" fill="#ca941f" stroke="#ca941f"></path><path d="M23 181L44 210L50 174Z" fill="#ba8a26" stroke="#ba8a26"></path><path d="M0 144L0 155L53 158Z" fill="#ca941f" stroke="#ca941f"></path><path d="M23 181L5 210L44 210Z" fill="#db9f14" stroke="#db9f14"></path><path d="M136 210L196 220L160 210Z" fill="#6b5738" stroke="#6b5738"></path><path d="M160 210L196 220L163 209Z" fill="#7a6136" stroke="#7a6136"></path><path d="M201 198L261 179L218 133Z" fill="#3b3b3b" stroke="#3b3b3b"></path><path d="M55 210L196 220L136 210Z" fill="#6b5738" stroke="#6b5738"></path><path d="M44 210L196 220L55 210Z" fill="#aa7f2c" stroke="#aa7f2c"></path><path d="M196 220L212 210L201 198Z" fill="#6b5738" stroke="#6b5738"></path><path d="M266 47L226 0L219 37Z" fill="#db9f14" stroke="#db9f14"></path><path d="M219 37L226 0L193 0Z" fill="#9a7530" stroke="#9a7530"></path><path d="M266 47L260 52L283 78Z" fill="#ba8a26" stroke="#ba8a26"></path><path d="M234 105L260 52L230 104Z" fill="#9a7530" stroke="#9a7530"></path><path d="M0 155L0 166L23 181Z" fill="#3b3b3b" stroke="#3b3b3b"></path><path d="M283 78L260 52L234 105Z" fill="#7a6136" stroke="#7a6136"></path><path d="M260 52L266 47L219 37Z" fill="#9a7530" stroke="#9a7530"></path><path d="M212 210L261 179L201 198Z" fill="#3b3b3b" stroke="#3b3b3b"></path><path d="M292 117L283 78L234 105Z" fill="#db9f14" stroke="#db9f14"></path><path d="M0 -5L77 0L144 -9Z" fill="#9a7530" stroke="#9a7530"></path><path d="M41 0L0 0L40 53Z" fill="#ca941f" stroke="#ca941f"></path><path d="M0 210L5 210L23 181Z" fill="#3b3b3b" stroke="#3b3b3b"></path><path d="M44 210L5 210L196 220Z" fill="#3b3b3b" stroke="#3b3b3b"></path><path d="M196 220L249 210L212 210Z" fill="#7a6136" stroke="#7a6136"></path><path d="M212 210L249 210L261 179Z" fill="#7a6136" stroke="#7a6136"></path><path d="M198 -15L0 -5L144 -9Z" fill="#3b3b3b" stroke="#3b3b3b"></path><path d="M0 -5L-5 0L0 0Z" fill="#db9f14" stroke="#db9f14"></path><path d="M0 0L-5 0L0 79Z" fill="#9a7530" stroke="#9a7530"></path><path d="M0 79L-5 0L0 116Z" fill="#ca941f" stroke="#ca941f"></path><path d="M0 116L-5 0L0 144Z" fill="#8a6b33" stroke="#8a6b33"></path><path d="M0 144L-5 0L0 155Z" fill="#9a7530" stroke="#9a7530"></path><path d="M0 155L-5 0L0 166Z" fill="#ca941f" stroke="#ca941f"></path><path d="M300 122L292 117L300 148Z" fill="#3b3b3b" stroke="#3b3b3b"></path><path d="M291 164L292 117L222 132Z" fill="#8a6b33" stroke="#8a6b33"></path><path d="M196 220L252 210L249 210Z" fill="#ba8a26" stroke="#ba8a26"></path><path d="M249 210L252 210L261 179Z" fill="#3b3b3b" stroke="#3b3b3b"></path><path d="M0 166L0 210L23 181Z" fill="#3b3b3b" stroke="#3b3b3b"></path><path d="M5 210L0 210L196 220Z" fill="#ca941f" stroke="#ca941f"></path><path d="M-5 0L0 210L0 166Z" fill="#ca941f" stroke="#ca941f"></path><path d="M292 117L300 95L283 78Z" fill="#6b5738" stroke="#6b5738"></path><path d="M283 78L300 68L266 47Z" fill="#5b4e39" stroke="#5b4e39"></path><path d="M291 164L222 132L261 179Z" fill="#ba8a26" stroke="#ba8a26"></path><path d="M292 117L300 122L300 95Z" fill="#6b5738" stroke="#6b5738"></path><path d="M300 95L300 68L283 78Z" fill="#6b5738" stroke="#6b5738"></path><path d="M266 47L272 0L226 0Z" fill="#4b443a" stroke="#4b443a"></path><path d="M285 191L291 164L261 179Z" fill="#aa7f2c" stroke="#aa7f2c"></path><path d="M226 0L272 0L198 -15Z" fill="#aa7f2c" stroke="#aa7f2c"></path><path d="M294 16L272 0L266 47Z" fill="#db9f14" stroke="#db9f14"></path><path d="M291 164L300 148L292 117Z" fill="#aa7f2c" stroke="#aa7f2c"></path><path d="M252 210L285 191L261 179Z" fill="#3b3b3b" stroke="#3b3b3b"></path><path d="M291 164L300 171L300 148Z" fill="#db9f14" stroke="#db9f14"></path><path d="M300 68L294 16L266 47Z" fill="#db9f14" stroke="#db9f14"></path><path d="M285 191L300 171L291 164Z" fill="#6b5738" stroke="#6b5738"></path><path d="M196 220L285 210L252 210Z" fill="#9a7530" stroke="#9a7530"></path><path d="M252 210L285 210L285 191Z" fill="#aa7f2c" stroke="#aa7f2c"></path><path d="M285 191L300 210L300 171Z" fill="#7a6136" stroke="#7a6136"></path><path d="M300 68L300 9L294 16Z" fill="#5b4e39" stroke="#5b4e39"></path><path d="M294 16L300 0L272 0Z" fill="#ba8a26" stroke="#ba8a26"></path><path d="M300 9L300 0L294 16Z" fill="#ca941f" stroke="#ca941f"></path><path d="M272 0L300 0L198 -15Z" fill="#3b3b3b" stroke="#3b3b3b"></path><path d="M196 220L300 210L285 210Z" fill="#db9f14" stroke="#db9f14"></path><path d="M285 210L300 210L285 191Z" fill="#ca941f" stroke="#ca941f"></path></g></svg>