<svg id="visual" viewBox="0 0 300 210" width="300" height="210" xmlns="http://www.w3.org/2000/svg" xmlns:xlink="http://www.w3.org/1999/xlink" version="1.1"><path d="M0 18L27 18L27 12L55 12L55 12L82 12L82 14L109 14L109 20L136 20L136 14L164 14L164 20L191 20L191 20L218 20L218 12L245 12L245 20L273 20L273 12L300 12L300 20L300 0L300 0L273 0L273 0L245 0L245 0L218 0L218 0L191 0L191 0L164 0L164 0L136 0L136 0L109 0L109 0L82 0L82 0L55 0L55 0L27 0L27 0L0 0Z" fill="#db9f14"></path><path d="M0 72L27 72L27 77L55 77L55 83L82 83L82 72L109 72L109 75L136 75L136 72L164 72L164 64L191 64L191 58L218 58L218 62L245 62L245 83L273 83L273 54L300 54L300 56L300 18L300 10L273 10L273 18L245 18L245 10L218 10L218 18L191 18L191 18L164 18L164 12L136 12L136 18L109 18L109 12L82 12L82 10L55 10L55 10L27 10L27 16L0 16Z" fill="#bf8d24"></path><path d="M0 96L27 96L27 98L55 98L55 106L82 106L82 93L109 93L109 98L136 98L136 96L164 96L164 87L191 87L191 77L218 77L218 87L245 87L245 98L273 98L273 79L300 79L300 70L300 54L300 52L273 52L273 81L245 81L245 60L218 60L218 56L191 56L191 62L164 62L164 70L136 70L136 73L109 73L109 70L82 70L82 81L55 81L55 75L27 75L27 70L0 70Z" fill="#a47c2d"></path><path d="M0 112L27 112L27 117L55 117L55 123L82 123L82 114L109 114L109 110L136 110L136 119L164 119L164 106L191 106L191 91L218 91L218 104L245 104L245 110L273 110L273 96L300 96L300 89L300 68L300 77L273 77L273 96L245 96L245 85L218 85L218 75L191 75L191 85L164 85L164 94L136 94L136 96L109 96L109 91L82 91L82 104L55 104L55 96L27 96L27 94L0 94Z" fill="#8a6b33"></path><path d="M0 150L27 150L27 159L55 159L55 161L82 161L82 163L109 163L109 156L136 156L136 154L164 154L164 150L191 150L191 154L218 154L218 146L245 146L245 161L273 161L273 154L300 154L300 146L300 87L300 94L273 94L273 108L245 108L245 102L218 102L218 89L191 89L191 104L164 104L164 117L136 117L136 108L109 108L109 112L82 112L82 121L55 121L55 115L27 115L27 110L0 110Z" fill="#705a37"></path><path d="M0 182L27 182L27 182L55 182L55 192L82 192L82 188L109 188L109 192L136 192L136 186L164 186L164 184L191 184L191 182L218 182L218 186L245 186L245 186L273 186L273 182L300 182L300 182L300 144L300 152L273 152L273 159L245 159L245 144L218 144L218 152L191 152L191 148L164 148L164 152L136 152L136 154L109 154L109 161L82 161L82 159L55 159L55 157L27 157L27 148L0 148Z" fill="#564a3a"></path><path d="M0 211L27 211L27 211L55 211L55 211L82 211L82 211L109 211L109 211L136 211L136 211L164 211L164 211L191 211L191 211L218 211L218 211L245 211L245 211L273 211L273 211L300 211L300 211L300 180L300 180L273 180L273 184L245 184L245 184L218 184L218 180L191 180L191 182L164 182L164 184L136 184L136 190L109 190L109 186L82 186L82 190L55 190L55 180L27 180L27 180L0 180Z" fill="#3b3b3b"></path></svg>