<svg id="visual" viewBox="0 0 300 210" width="300" height="210" xmlns="http://www.w3.org/2000/svg" xmlns:xlink="http://www.w3.org/1999/xlink" version="1.1"><path d="M0 58L4.5 55.2C9 52.3 18 46.7 27.2 42.8C36.3 39 45.7 37 54.8 39.5C64 42 73 49 82 54.8C91 60.7 100 65.3 109 66.7C118 68 127 66 136.2 59.8C145.3 53.7 154.7 43.3 163.8 44.3C173 45.3 182 57.7 191 56.5C200 55.3 209 40.7 218 38C227 35.3 236 44.7 245.2 48.5C254.3 52.3 263.7 50.7 272.8 48.5C282 46.3 291 43.7 295.5 42.3L300 41L300 0L295.5 0C291 0 282 0 272.8 0C263.7 0 254.3 0 245.2 0C236 0 227 0 218 0C209 0 200 0 191 0C182 0 173 0 163.8 0C154.7 0 145.3 0 136.2 0C127 0 118 0 109 0C100 0 91 0 82 0C73 0 64 0 54.8 0C45.7 0 36.3 0 27.2 0C18 0 9 0 4.5 0L0 0Z" fill="#db9f14"></path><path d="M0 110L4.5 104.5C9 99 18 88 27.2 83.5C36.3 79 45.7 81 54.8 84.2C64 87.3 73 91.7 82 96.5C91 101.3 100 106.7 109 104.5C118 102.3 127 92.7 136.2 87.5C145.3 82.3 154.7 81.7 163.8 89C173 96.3 182 111.7 191 111.7C200 111.7 209 96.3 218 92.5C227 88.7 236 96.3 245.2 94.2C254.3 92 263.7 80 272.8 73C282 66 291 64 295.5 63L300 62L300 39L295.5 40.3C291 41.7 282 44.3 272.8 46.5C263.7 48.7 254.3 50.3 245.2 46.5C236 42.7 227 33.3 218 36C209 38.7 200 53.3 191 54.5C182 55.7 173 43.3 163.8 42.3C154.7 41.3 145.3 51.7 136.2 57.8C127 64 118 66 109 64.7C100 63.3 91 58.7 82 52.8C73 47 64 40 54.8 37.5C45.7 35 36.3 37 27.2 40.8C18 44.7 9 50.3 4.5 53.2L0 56Z" fill="#b28529"></path><path d="M0 144L4.5 135.2C9 126.3 18 108.7 27.2 104.5C36.3 100.3 45.7 109.7 54.8 113.2C64 116.7 73 114.3 82 118.8C91 123.3 100 134.7 109 135.5C118 136.3 127 126.7 136.2 122.5C145.3 118.3 154.7 119.7 163.8 124.2C173 128.7 182 136.3 191 135.2C200 134 209 124 218 122.2C227 120.3 236 126.7 245.2 126C254.3 125.3 263.7 117.7 272.8 112.8C282 108 291 106 295.5 105L300 104L300 60L295.5 61C291 62 282 64 272.8 71C263.7 78 254.3 90 245.2 92.2C236 94.3 227 86.7 218 90.5C209 94.3 200 109.7 191 109.7C182 109.7 173 94.3 163.8 87C154.7 79.7 145.3 80.3 136.2 85.5C127 90.7 118 100.3 109 102.5C100 104.7 91 99.3 82 94.5C73 89.7 64 85.3 54.8 82.2C45.7 79 36.3 77 27.2 81.5C18 86 9 97 4.5 102.5L0 108Z" fill="#8a6b33"></path><path d="M0 184L4.5 185.7C9 187.3 18 190.7 27.2 189.5C36.3 188.3 45.7 182.7 54.8 183C64 183.3 73 189.7 82 191.2C91 192.7 100 189.3 109 186.7C118 184 127 182 136.2 181.3C145.3 180.7 154.7 181.3 163.8 182.3C173 183.3 182 184.7 191 186.7C200 188.7 209 191.3 218 193C227 194.7 236 195.3 245.2 194.7C254.3 194 263.7 192 272.8 192.3C282 192.7 291 195.3 295.5 196.7L300 198L300 102L295.5 103C291 104 282 106 272.8 110.8C263.7 115.7 254.3 123.3 245.2 124C236 124.7 227 118.3 218 120.2C209 122 200 132 191 133.2C182 134.3 173 126.7 163.8 122.2C154.7 117.7 145.3 116.3 136.2 120.5C127 124.7 118 134.3 109 133.5C100 132.7 91 121.3 82 116.8C73 112.3 64 114.7 54.8 111.2C45.7 107.7 36.3 98.3 27.2 102.5C18 106.7 9 124.3 4.5 133.2L0 142Z" fill="#635238"></path><path d="M0 211L4.5 211C9 211 18 211 27.2 211C36.3 211 45.7 211 54.8 211C64 211 73 211 82 211C91 211 100 211 109 211C118 211 127 211 136.2 211C145.3 211 154.7 211 163.8 211C173 211 182 211 191 211C200 211 209 211 218 211C227 211 236 211 245.2 211C254.3 211 263.7 211 272.8 211C282 211 291 211 295.5 211L300 211L300 196L295.5 194.7C291 193.3 282 190.7 272.8 190.3C263.7 190 254.3 192 245.2 192.7C236 193.3 227 192.7 218 191C209 189.3 200 186.7 191 184.7C182 182.7 173 181.3 163.8 180.3C154.7 179.3 145.3 178.7 136.2 179.3C127 180 118 182 109 184.7C100 187.3 91 190.7 82 189.2C73 187.7 64 181.3 54.8 181C45.7 180.7 36.3 186.3 27.2 187.5C18 188.7 9 185.3 4.5 183.7L0 182Z" fill="#3b3b3b"></path></svg>